<svg xmlns="http://www.w3.org/2000/svg" width="640" height="400" viewBox="0 0 640 400" font-family="-apple-system,BlinkMacSystemFont,Segoe UI,Roboto,sans-serif" font-size="12"><rect x="0" y="0" width="640" height="400" fill="#fff"/><text x="320.0" y="22" text-anchor="middle" font-size="14" font-weight="600">First-difference cross-correlation vs lag (travel time)</text><rect x="60" y="40" width="440" height="310" fill="none" stroke="#999" stroke-width="1"/><line x1="60.0" y1="350" x2="60.0" y2="355" stroke="#999"/><text x="60.0" y="368" text-anchor="middle">-18</text><line x1="133.3" y1="350" x2="133.3" y2="355" stroke="#999"/><text x="133.3" y="368" text-anchor="middle">-12</text><line x1="206.7" y1="350" x2="206.7" y2="355" stroke="#999"/><text x="206.7" y="368" text-anchor="middle">-6</text><line x1="280.0" y1="350" x2="280.0" y2="355" stroke="#999"/><text x="280.0" y="368" text-anchor="middle">+0</text><line x1="353.3" y1="350" x2="353.3" y2="355" stroke="#999"/><text x="353.3" y="368" text-anchor="middle">+6</text><line x1="426.7" y1="350" x2="426.7" y2="355" stroke="#999"/><text x="426.7" y="368" text-anchor="middle">+12</text><line x1="500.0" y1="350" x2="500.0" y2="355" stroke="#999"/><text x="500.0" y="368" text-anchor="middle">+18</text><line x1="55" y1="350.0" x2="60" y2="350.0" stroke="#999"/><text x="52" y="354.0" text-anchor="end">-0.1</text><line x1="55" y1="226.0" x2="60" y2="226.0" stroke="#999"/><text x="52" y="230.0" text-anchor="end">0.1</text><line x1="55" y1="102.0" x2="60" y2="102.0" stroke="#999"/><text x="52" y="106.0" text-anchor="end">0.3</text><line x1="280.0" y1="40" x2="280.0" y2="350" stroke="#333" stroke-width="1" stroke-dasharray="2,2"/><polyline points="60.0,316.7 66.1,318.3 72.2,319.9 78.3,310.8 84.4,313.9 90.6,310.8 96.7,304.3 102.8,305.9 108.9,299.6 115.0,295.5 121.1,292.6 127.2,287.2 133.3,275.4 139.4,276.2 145.6,265.4 151.7,261.1 157.8,250.0 163.9,240.7 170.0,235.5 176.1,227.4 182.2,210.0 188.3,207.2 194.4,189.1 200.6,179.1 206.7,172.2 212.8,152.3 218.9,145.7 225.0,126.8 231.1,114.4 237.2,97.5 243.3,85.6 249.4,75.8 255.6,63.1 261.7,55.1 267.8,49.9 273.9,45.0 280.0,43.2 286.1,48.5 292.2,48.8 298.3,56.4 304.4,63.3 310.6,82.7 316.7,86.7 322.8,106.9 328.9,119.6 335.0,130.7 341.1,154.0 347.2,161.5 353.3,171.1 359.4,189.9 365.6,193.4 371.7,199.2 377.8,215.1 383.9,212.1 390.0,222.3 396.1,230.0 402.2,235.0 408.3,228.5 414.4,244.2 420.6,246.8 426.7,251.5 432.8,258.2 438.9,255.2 445.0,260.2 451.1,267.0 457.2,259.7 463.3,268.0 469.4,270.3 475.6,278.3 481.7,272.0 487.8,277.3 493.9,285.7 500.0,278.2" fill="none" stroke="#1b5591" stroke-width="1.8"/><circle cx="280.0" cy="43.2" r="3.5" fill="#1b5591"/><line x1="508" y1="50" x2="526" y2="50" stroke="#1b5591" stroke-width="2.5"/><text x="530" y="54" font-size="10">14159200 (+0.0 h)</text><polyline points="60.0,298.8 66.1,296.9 72.2,296.4 78.3,299.0 84.4,303.3 90.6,294.4 96.7,295.4 102.8,292.9 108.9,282.9 115.0,283.6 121.1,287.0 127.2,288.7 133.3,281.1 139.4,287.4 145.6,273.8 151.7,270.6 157.8,264.5 163.9,257.2 170.0,257.8 176.1,253.4 182.2,250.9 188.3,244.0 194.4,237.7 200.6,231.4 206.7,225.8 212.8,227.7 218.9,219.2 225.0,221.6 231.1,216.4 237.2,208.8 243.3,210.0 249.4,207.9 255.6,208.7 261.7,208.0 267.8,201.4 273.9,210.0 280.0,201.9 286.1,207.0 292.2,211.1 298.3,211.9 304.4,214.0 310.6,221.3 316.7,227.2 322.8,228.0 328.9,231.3 335.0,236.5 341.1,252.8 347.2,252.7 353.3,255.2 359.4,259.1 365.6,269.9 371.7,267.7 377.8,266.7 383.9,272.7 390.0,263.7 396.1,276.6 402.2,275.1 408.3,272.0 414.4,274.4 420.6,273.3 426.7,259.5 432.8,280.5 438.9,268.1 445.0,280.5 451.1,276.5 457.2,283.2 463.3,284.3 469.4,279.8 475.6,284.7 481.7,276.8 487.8,287.4 493.9,281.7 500.0,284.8" fill="none" stroke="#c0392b" stroke-width="1.8" stroke-dasharray="4,3"/><line x1="508" y1="68" x2="526" y2="68" stroke="#c0392b" stroke-width="2.5" stroke-dasharray="4,3"/><text x="530" y="72" font-size="10">14158850 (n/a)</text><text x="280.0" y="388" text-anchor="middle">predictor lag τ (hours; + = predictor leads target)</text><text x="16" y="195.0" text-anchor="middle" transform="rotate(-90 16 195.0)">corr( Δpredictor , Δtarget )</text></svg>
