<svg xmlns="http://www.w3.org/2000/svg" width="640" height="400" viewBox="0 0 640 400" font-family="-apple-system,BlinkMacSystemFont,Segoe UI,Roboto,sans-serif" font-size="12"><rect x="0" y="0" width="640" height="400" fill="#fff"/><text x="320.0" y="22" text-anchor="middle" font-size="14" font-weight="600">First-difference cross-correlation vs lag (travel time)</text><rect x="60" y="40" width="440" height="310" fill="none" stroke="#999" stroke-width="1"/><line x1="60.0" y1="350" x2="60.0" y2="355" stroke="#999"/><text x="60.0" y="368" text-anchor="middle">-18</text><line x1="133.3" y1="350" x2="133.3" y2="355" stroke="#999"/><text x="133.3" y="368" text-anchor="middle">-12</text><line x1="206.7" y1="350" x2="206.7" y2="355" stroke="#999"/><text x="206.7" y="368" text-anchor="middle">-6</text><line x1="280.0" y1="350" x2="280.0" y2="355" stroke="#999"/><text x="280.0" y="368" text-anchor="middle">+0</text><line x1="353.3" y1="350" x2="353.3" y2="355" stroke="#999"/><text x="353.3" y="368" text-anchor="middle">+6</text><line x1="426.7" y1="350" x2="426.7" y2="355" stroke="#999"/><text x="426.7" y="368" text-anchor="middle">+12</text><line x1="500.0" y1="350" x2="500.0" y2="355" stroke="#999"/><text x="500.0" y="368" text-anchor="middle">+18</text><line x1="55" y1="350.0" x2="60" y2="350.0" stroke="#999"/><text x="52" y="354.0" text-anchor="end">-0.1</text><line x1="55" y1="261.4" x2="60" y2="261.4" stroke="#999"/><text x="52" y="265.4" text-anchor="end">0.1</text><line x1="55" y1="172.9" x2="60" y2="172.9" stroke="#999"/><text x="52" y="176.9" text-anchor="end">0.3</text><line x1="55" y1="84.3" x2="60" y2="84.3" stroke="#999"/><text x="52" y="88.3" text-anchor="end">0.5</text><line x1="280.0" y1="40" x2="280.0" y2="350" stroke="#333" stroke-width="1" stroke-dasharray="2,2"/><polyline points="60.0,305.9 66.1,303.3 72.2,303.0 78.3,303.9 84.4,307.5 90.6,301.4 96.7,303.8 102.8,302.0 108.9,304.9 115.0,295.1 121.1,298.5 127.2,293.1 133.3,287.6 139.4,282.3 145.6,274.5 151.7,280.6 157.8,260.7 163.9,267.7 170.0,244.2 176.1,243.5 182.2,228.7 188.3,220.2 194.4,218.7 200.6,204.5 206.7,206.2 212.8,186.3 218.9,181.2 225.0,182.2 231.1,171.9 237.2,170.9 243.3,167.3 249.4,152.8 255.6,190.2 261.7,197.4 267.8,201.9 273.9,206.7 280.0,219.1 286.1,229.8 292.2,235.9 298.3,245.0 304.4,252.8 310.6,262.6 316.7,272.6 322.8,278.2 328.9,285.1 335.0,275.9 341.1,286.8 347.2,288.5 353.3,289.2 359.4,290.2 365.6,303.6 371.7,292.2 377.8,303.2 383.9,306.8 390.0,303.0 396.1,309.5 402.2,306.8 408.3,312.0 414.4,312.4 420.6,314.3 426.7,308.6 432.8,309.9 438.9,317.5 445.0,306.4 451.1,304.8 457.2,310.1 463.3,309.0 469.4,306.2 475.6,314.7 481.7,308.4 487.8,314.8 493.9,309.3 500.0,304.7" fill="none" stroke="#1b5591" stroke-width="1.8"/><circle cx="249.4" cy="152.8" r="3.5" fill="#1b5591"/><line x1="508" y1="50" x2="526" y2="50" stroke="#1b5591" stroke-width="2.5"/><text x="530" y="54" font-size="10">14162500 (-2.5 h)</text><polyline points="60.0,311.5 66.1,313.6 72.2,311.2 78.3,315.2 84.4,307.7 90.6,308.8 96.7,305.1 102.8,309.0 108.9,310.5 115.0,315.7 121.1,309.6 127.2,314.6 133.3,310.0 139.4,302.4 145.6,308.6 151.7,296.9 157.8,295.6 163.9,294.9 170.0,295.6 176.1,292.2 182.2,295.7 188.3,296.5 194.4,296.8 200.6,299.7 206.7,298.3 212.8,298.3 218.9,293.5 225.0,287.2 231.1,281.9 237.2,280.1 243.3,274.7 249.4,263.1 255.6,250.2 261.7,249.1 267.8,234.8 273.9,223.9 280.0,211.0 286.1,204.1 292.2,239.6 298.3,56.4 304.4,178.0 310.6,196.2 316.7,225.5 322.8,241.6 328.9,252.3 335.0,263.0 341.1,270.8 347.2,275.9 353.3,278.7 359.4,287.9 365.6,285.4 371.7,283.6 377.8,289.1 383.9,299.0 390.0,290.9 396.1,291.3 402.2,295.0 408.3,292.3 414.4,295.4 420.6,299.3 426.7,302.2 432.8,303.6 438.9,306.9 445.0,306.4 451.1,308.1 457.2,312.7 463.3,309.1 469.4,315.3 475.6,317.9 481.7,318.3 487.8,314.0 493.9,313.3 500.0,311.8" fill="none" stroke="#c0392b" stroke-width="1.8"/><circle cx="298.3" cy="56.4" r="3.5" fill="#c0392b"/><line x1="508" y1="68" x2="526" y2="68" stroke="#c0392b" stroke-width="2.5"/><text x="530" y="72" font-size="10">14158850 (+1.5 h)</text><polyline points="60.0,303.8 66.1,294.1 72.2,303.4 78.3,296.5 84.4,302.5 90.6,301.5 96.7,306.4 102.8,302.2 108.9,308.1 115.0,305.6 121.1,309.7 127.2,309.9 133.3,307.8 139.4,307.7 145.6,306.8 151.7,307.7 157.8,307.8 163.9,314.1 170.0,311.3 176.1,316.1 182.2,313.6 188.3,314.6 194.4,315.2 200.6,301.5 206.7,317.9 212.8,311.6 218.9,314.0 225.0,312.3 231.1,312.3 237.2,316.6 243.3,308.8 249.4,316.5 255.6,305.1 261.7,307.4 267.8,303.8 273.9,303.2 280.0,300.9 286.1,305.4 292.2,308.5 298.3,306.1 304.4,301.9 310.6,307.1 316.7,298.6 322.8,306.6 328.9,305.0 335.0,298.9 341.1,307.3 347.2,288.5 353.3,319.6 359.4,306.4 365.6,306.1 371.7,306.5 377.8,306.2 383.9,307.2 390.0,309.0 396.1,306.3 402.2,303.6 408.3,306.6 414.4,304.6 420.6,308.5 426.7,308.0 432.8,308.8 438.9,306.1 445.0,303.4 451.1,303.3 457.2,307.9 463.3,304.1 469.4,303.2 475.6,306.0 481.7,300.1 487.8,304.9 493.9,306.2 500.0,305.7" fill="none" stroke="#27ae60" stroke-width="1.8" stroke-dasharray="4,3"/><line x1="508" y1="86" x2="526" y2="86" stroke="#27ae60" stroke-width="2.5" stroke-dasharray="4,3"/><text x="530" y="90" font-size="10">14159500 (n/a)</text><polyline points="60.0,325.6 66.1,328.5 72.2,326.9 78.3,328.7 84.4,329.4 90.6,329.2 96.7,327.5 102.8,322.5 108.9,324.4 115.0,323.3 121.1,319.7 127.2,320.1 133.3,317.0 139.4,317.7 145.6,311.7 151.7,297.7 157.8,297.6 163.9,292.8 170.0,295.3 176.1,285.6 182.2,287.9 188.3,278.5 194.4,273.7 200.6,267.3 206.7,255.3 212.8,250.6 218.9,243.0 225.0,230.5 231.1,223.7 237.2,208.5 243.3,198.9 249.4,182.3 255.6,177.5 261.7,152.9 267.8,140.7 273.9,120.0 280.0,105.9 286.1,103.3 292.2,105.7 298.3,118.1 304.4,134.2 310.6,152.2 316.7,170.7 322.8,188.6 328.9,203.5 335.0,218.4 341.1,235.0 347.2,245.8 353.3,256.5 359.4,265.1 365.6,273.9 371.7,282.3 377.8,289.7 383.9,296.8 390.0,297.8 396.1,293.3 402.2,291.7 408.3,289.2 414.4,286.3 420.6,282.0 426.7,278.2 432.8,272.8 438.9,269.2 445.0,261.9 451.1,260.6 457.2,263.1 463.3,267.6 469.4,267.1 475.6,271.7 481.7,270.7 487.8,277.0 493.9,278.3 500.0,285.2" fill="none" stroke="#8e44ad" stroke-width="1.8"/><circle cx="286.1" cy="103.3" r="3.5" fill="#8e44ad"/><line x1="508" y1="104" x2="526" y2="104" stroke="#8e44ad" stroke-width="2.5"/><text x="530" y="108" font-size="10">14161500 (+0.5 h)</text><text x="280.0" y="388" text-anchor="middle">predictor lag τ (hours; + = predictor leads target)</text><text x="16" y="195.0" text-anchor="middle" transform="rotate(-90 16 195.0)">corr( Δpredictor , Δtarget )</text></svg>
