<svg xmlns="http://www.w3.org/2000/svg" width="640" height="400" viewBox="0 0 640 400" font-family="-apple-system,BlinkMacSystemFont,Segoe UI,Roboto,sans-serif" font-size="12"><rect x="0" y="0" width="640" height="400" fill="#fff"/><text x="320.0" y="22" text-anchor="middle" font-size="14" font-weight="600">First-difference cross-correlation vs lag (travel time)</text><rect x="60" y="40" width="450" height="310" fill="none" stroke="#999" stroke-width="1"/><line x1="60.0" y1="350" x2="60.0" y2="355" stroke="#999"/><text x="60.0" y="368" text-anchor="middle">-18</text><line x1="135.0" y1="350" x2="135.0" y2="355" stroke="#999"/><text x="135.0" y="368" text-anchor="middle">-12</text><line x1="210.0" y1="350" x2="210.0" y2="355" stroke="#999"/><text x="210.0" y="368" text-anchor="middle">-6</text><line x1="285.0" y1="350" x2="285.0" y2="355" stroke="#999"/><text x="285.0" y="368" text-anchor="middle">+0</text><line x1="360.0" y1="350" x2="360.0" y2="355" stroke="#999"/><text x="360.0" y="368" text-anchor="middle">+6</text><line x1="435.0" y1="350" x2="435.0" y2="355" stroke="#999"/><text x="435.0" y="368" text-anchor="middle">+12</text><line x1="510.0" y1="350" x2="510.0" y2="355" stroke="#999"/><text x="510.0" y="368" text-anchor="middle">+18</text><line x1="55" y1="350.0" x2="60" y2="350.0" stroke="#999"/><text x="52" y="354.0" text-anchor="end">-0.1</text><line x1="55" y1="281.1" x2="60" y2="281.1" stroke="#999"/><text x="52" y="285.1" text-anchor="end">0.1</text><line x1="55" y1="212.2" x2="60" y2="212.2" stroke="#999"/><text x="52" y="216.2" text-anchor="end">0.3</text><line x1="55" y1="143.3" x2="60" y2="143.3" stroke="#999"/><text x="52" y="147.3" text-anchor="end">0.5</text><line x1="55" y1="74.4" x2="60" y2="74.4" stroke="#999"/><text x="52" y="78.4" text-anchor="end">0.7</text><line x1="285.0" y1="40" x2="285.0" y2="350" stroke="#333" stroke-width="1" stroke-dasharray="2,2"/><polyline points="60.0,314.8 72.5,312.8 85.0,314.4 97.5,311.5 110.0,310.6 122.5,302.6 135.0,290.9 147.5,280.2 160.0,264.6 172.5,244.0 185.0,217.6 197.5,196.8 210.0,179.1 222.5,155.9 235.0,144.5 247.5,136.3 260.0,151.2 272.5,181.9 285.0,201.6 297.5,226.0 310.0,247.4 322.5,269.2 335.0,282.6 347.5,288.0 360.0,295.5 372.5,303.6 385.0,309.7 397.5,315.8 410.0,320.0 422.5,323.2 435.0,323.6 447.5,322.4 460.0,317.6 472.5,320.2 485.0,321.4 497.5,323.4 510.0,319.0" fill="none" stroke="#1b5591" stroke-width="1.8"/><circle cx="247.5" cy="136.3" r="3.5" fill="#1b5591"/><line x1="518" y1="50" x2="536" y2="50" stroke="#1b5591" stroke-width="2.5"/><text x="540" y="54" font-size="10">14162500 (-3 h)</text><polyline points="60.0,323.1 72.5,326.5 85.0,321.9 97.5,318.8 110.0,324.3 122.5,325.3 135.0,321.9 147.5,312.0 160.0,300.8 172.5,297.7 185.0,300.1 197.5,300.3 210.0,304.0 222.5,293.8 235.0,282.2 247.5,261.3 260.0,232.8 272.5,204.1 285.0,170.2 297.5,127.1 310.0,71.4 322.5,184.3 335.0,230.9 347.5,257.8 360.0,274.8 372.5,282.6 385.0,292.2 397.5,294.8 410.0,296.9 422.5,299.7 435.0,309.2 447.5,315.7 460.0,320.3 472.5,324.7 485.0,334.2 497.5,330.1 510.0,325.8" fill="none" stroke="#c0392b" stroke-width="1.8"/><circle cx="310.0" cy="71.4" r="3.5" fill="#c0392b"/><line x1="518" y1="68" x2="536" y2="68" stroke="#c0392b" stroke-width="2.5"/><text x="540" y="72" font-size="10">14158850 (+2 h)</text><polyline points="60.0,309.0 72.5,302.8 85.0,306.2 97.5,311.3 110.0,315.5 122.5,320.5 135.0,320.4 147.5,319.1 160.0,323.4 172.5,328.1 185.0,327.7 197.5,327.6 210.0,324.4 222.5,326.7 235.0,326.6 247.5,326.8 260.0,319.8 272.5,312.7 285.0,313.3 297.5,315.3 310.0,314.1 322.5,311.6 335.0,312.9 347.5,308.9 360.0,314.5 372.5,319.8 385.0,316.7 397.5,317.6 410.0,315.0 422.5,316.8 435.0,318.7 447.5,316.2 460.0,314.1 472.5,313.8 485.0,312.8 497.5,313.5 510.0,314.7" fill="none" stroke="#27ae60" stroke-width="1.8" stroke-dasharray="4,3"/><line x1="518" y1="86" x2="536" y2="86" stroke="#27ae60" stroke-width="2.5" stroke-dasharray="4,3"/><text x="540" y="90" font-size="10">14159500 (n/a)</text><polyline points="60.0,339.4 72.5,339.8 85.0,340.8 97.5,338.5 110.0,335.2 122.5,331.9 135.0,329.2 147.5,318.8 160.0,306.6 172.5,299.7 185.0,292.5 197.5,280.2 210.0,262.5 222.5,245.3 235.0,223.6 247.5,197.1 260.0,168.7 272.5,132.8 285.0,102.8 297.5,101.2 310.0,128.4 322.5,167.2 335.0,203.9 347.5,235.8 360.0,261.0 372.5,279.7 385.0,297.7 397.5,305.1 410.0,299.5 422.5,294.1 435.0,284.8 447.5,274.5 460.0,268.9 472.5,271.9 485.0,276.8 497.5,283.0 510.0,293.6" fill="none" stroke="#8e44ad" stroke-width="1.8"/><circle cx="297.5" cy="101.2" r="3.5" fill="#8e44ad"/><line x1="518" y1="104" x2="536" y2="104" stroke="#8e44ad" stroke-width="2.5"/><text x="540" y="108" font-size="10">14161500 (+1 h)</text><text x="285.0" y="388" text-anchor="middle">predictor lag τ (hours; + = predictor leads target)</text><text x="16" y="195.0" text-anchor="middle" transform="rotate(-90 16 195.0)">corr( Δpredictor , Δtarget )</text></svg>
