<svg xmlns="http://www.w3.org/2000/svg" width="640" height="400" viewBox="0 0 640 400" font-family="-apple-system,BlinkMacSystemFont,Segoe UI,Roboto,sans-serif" font-size="12"><rect x="0" y="0" width="640" height="400" fill="#fff"/><text x="320.0" y="22" text-anchor="middle" font-size="14" font-weight="600">First-difference cross-correlation vs lag (travel time)</text><rect x="60" y="40" width="440" height="310" fill="none" stroke="#999" stroke-width="1"/><line x1="60.0" y1="350" x2="60.0" y2="355" stroke="#999"/><text x="60.0" y="368" text-anchor="middle">-18</text><line x1="133.3" y1="350" x2="133.3" y2="355" stroke="#999"/><text x="133.3" y="368" text-anchor="middle">-12</text><line x1="206.7" y1="350" x2="206.7" y2="355" stroke="#999"/><text x="206.7" y="368" text-anchor="middle">-6</text><line x1="280.0" y1="350" x2="280.0" y2="355" stroke="#999"/><text x="280.0" y="368" text-anchor="middle">+0</text><line x1="353.3" y1="350" x2="353.3" y2="355" stroke="#999"/><text x="353.3" y="368" text-anchor="middle">+6</text><line x1="426.7" y1="350" x2="426.7" y2="355" stroke="#999"/><text x="426.7" y="368" text-anchor="middle">+12</text><line x1="500.0" y1="350" x2="500.0" y2="355" stroke="#999"/><text x="500.0" y="368" text-anchor="middle">+18</text><line x1="55" y1="350.0" x2="60" y2="350.0" stroke="#999"/><text x="52" y="354.0" text-anchor="end">-0.1</text><line x1="55" y1="281.1" x2="60" y2="281.1" stroke="#999"/><text x="52" y="285.1" text-anchor="end">0.1</text><line x1="55" y1="212.2" x2="60" y2="212.2" stroke="#999"/><text x="52" y="216.2" text-anchor="end">0.3</text><line x1="55" y1="143.3" x2="60" y2="143.3" stroke="#999"/><text x="52" y="147.3" text-anchor="end">0.5</text><line x1="55" y1="74.4" x2="60" y2="74.4" stroke="#999"/><text x="52" y="78.4" text-anchor="end">0.7</text><line x1="280.0" y1="40" x2="280.0" y2="350" stroke="#333" stroke-width="1" stroke-dasharray="2,2"/><polyline points="60.0,315.2 66.1,313.9 72.2,313.8 78.3,312.1 84.4,310.5 90.6,309.7 96.7,305.6 102.8,303.5 108.9,299.9 115.0,294.1 121.1,288.0 127.2,282.0 133.3,272.6 139.4,264.9 145.6,253.0 151.7,240.5 157.8,227.3 163.9,211.7 170.0,196.0 176.1,179.4 182.2,162.1 188.3,143.7 194.4,127.4 200.6,111.3 206.7,96.7 212.8,83.5 218.9,72.8 225.0,64.8 231.1,58.6 237.2,55.8 243.3,56.6 249.4,60.0 255.6,65.6 261.7,75.2 267.8,88.3 273.9,102.2 280.0,119.2 286.1,136.7 292.2,154.3 298.3,173.3 304.4,190.1 310.6,208.2 316.7,223.8 322.8,239.2 328.9,253.4 335.0,263.9 341.1,275.7 347.2,284.3 353.3,291.3 359.4,297.6 365.6,302.2 371.7,305.1 377.8,307.9 383.9,308.9 390.0,310.7 396.1,311.2 402.2,312.6 408.3,313.0 414.4,314.1 420.6,317.2 426.7,318.1 432.8,321.8 438.9,323.8 445.0,325.9 451.1,329.7 457.2,332.0 463.3,333.1 469.4,336.6 475.6,337.7 481.7,339.2 487.8,341.2 493.9,342.3 500.0,343.2" fill="none" stroke="#1b5591" stroke-width="1.8"/><circle cx="237.2" cy="55.8" r="3.5" fill="#1b5591"/><line x1="508" y1="50" x2="526" y2="50" stroke="#1b5591" stroke-width="2.5"/><text x="530" y="54" font-size="10">14306500 (-3.5 h)</text><text x="280.0" y="388" text-anchor="middle">predictor lag τ (hours; + = predictor leads target)</text><text x="16" y="195.0" text-anchor="middle" transform="rotate(-90 16 195.0)">corr( Δpredictor , Δtarget )</text></svg>
