<svg xmlns="http://www.w3.org/2000/svg" width="640" height="400" viewBox="0 0 640 400" font-family="-apple-system,BlinkMacSystemFont,Segoe UI,Roboto,sans-serif" font-size="12"><rect x="0" y="0" width="640" height="400" fill="#fff"/><text x="320.0" y="22" text-anchor="middle" font-size="14" font-weight="600">First-difference cross-correlation vs lag (travel time)</text><rect x="60" y="40" width="440" height="310" fill="none" stroke="#999" stroke-width="1"/><line x1="60.0" y1="350" x2="60.0" y2="355" stroke="#999"/><text x="60.0" y="368" text-anchor="middle">-18</text><line x1="133.3" y1="350" x2="133.3" y2="355" stroke="#999"/><text x="133.3" y="368" text-anchor="middle">-12</text><line x1="206.7" y1="350" x2="206.7" y2="355" stroke="#999"/><text x="206.7" y="368" text-anchor="middle">-6</text><line x1="280.0" y1="350" x2="280.0" y2="355" stroke="#999"/><text x="280.0" y="368" text-anchor="middle">+0</text><line x1="353.3" y1="350" x2="353.3" y2="355" stroke="#999"/><text x="353.3" y="368" text-anchor="middle">+6</text><line x1="426.7" y1="350" x2="426.7" y2="355" stroke="#999"/><text x="426.7" y="368" text-anchor="middle">+12</text><line x1="500.0" y1="350" x2="500.0" y2="355" stroke="#999"/><text x="500.0" y="368" text-anchor="middle">+18</text><line x1="55" y1="350.0" x2="60" y2="350.0" stroke="#999"/><text x="52" y="354.0" text-anchor="end">-0.1</text><line x1="55" y1="195.0" x2="60" y2="195.0" stroke="#999"/><text x="52" y="199.0" text-anchor="end">0.1</text><line x1="55" y1="40.0" x2="60" y2="40.0" stroke="#999"/><text x="52" y="44.0" text-anchor="end">0.3</text><line x1="280.0" y1="40" x2="280.0" y2="350" stroke="#333" stroke-width="1" stroke-dasharray="2,2"/><polyline points="60.0,261.1 66.1,262.3 72.2,277.1 78.3,243.3 84.4,283.9 90.6,255.7 96.7,254.0 102.8,260.7 108.9,280.3 115.0,235.2 121.1,273.7 127.2,250.5 133.3,264.7 139.4,242.1 145.6,249.6 151.7,241.5 157.8,238.3 163.9,245.1 170.0,234.0 176.1,220.0 182.2,227.7 188.3,224.7 194.4,208.4 200.6,200.1 206.7,197.2 212.8,196.9 218.9,177.4 225.0,164.3 231.1,176.7 237.2,166.7 243.3,153.5 249.4,137.9 255.6,154.6 261.7,127.6 267.8,170.5 273.9,103.5 280.0,157.3 286.1,144.5 292.2,148.6 298.3,115.4 304.4,191.9 310.6,157.7 316.7,162.6 322.8,189.2 328.9,196.2 335.0,175.5 341.1,217.0 347.2,189.5 353.3,214.6 359.4,225.4 365.6,201.0 371.7,224.8 377.8,238.3 383.9,235.8 390.0,222.1 396.1,249.1 402.2,248.1 408.3,255.0 414.4,241.1 420.6,247.9 426.7,259.9 432.8,265.7 438.9,247.3 445.0,262.9 451.1,264.8 457.2,265.8 463.3,259.7 469.4,269.1 475.6,260.0 481.7,266.7 487.8,265.8 493.9,262.7 500.0,257.8" fill="none" stroke="#1b5591" stroke-width="1.8"/><circle cx="273.9" cy="103.5" r="3.5" fill="#1b5591"/><line x1="508" y1="50" x2="526" y2="50" stroke="#1b5591" stroke-width="2.5"/><text x="530" y="54" font-size="10">14330000 (-0.5 h)</text><text x="280.0" y="388" text-anchor="middle">predictor lag τ (hours; + = predictor leads target)</text><text x="16" y="195.0" text-anchor="middle" transform="rotate(-90 16 195.0)">corr( Δpredictor , Δtarget )</text></svg>
