<svg xmlns="http://www.w3.org/2000/svg" width="640" height="400" viewBox="0 0 640 400" font-family="-apple-system,BlinkMacSystemFont,Segoe UI,Roboto,sans-serif" font-size="12"><rect x="0" y="0" width="640" height="400" fill="#fff"/><text x="320.0" y="22" text-anchor="middle" font-size="14" font-weight="600">First-difference cross-correlation vs lag (travel time)</text><rect x="60" y="40" width="440" height="310" fill="none" stroke="#999" stroke-width="1"/><line x1="60.0" y1="350" x2="60.0" y2="355" stroke="#999"/><text x="60.0" y="368" text-anchor="middle">-18</text><line x1="133.3" y1="350" x2="133.3" y2="355" stroke="#999"/><text x="133.3" y="368" text-anchor="middle">-12</text><line x1="206.7" y1="350" x2="206.7" y2="355" stroke="#999"/><text x="206.7" y="368" text-anchor="middle">-6</text><line x1="280.0" y1="350" x2="280.0" y2="355" stroke="#999"/><text x="280.0" y="368" text-anchor="middle">+0</text><line x1="353.3" y1="350" x2="353.3" y2="355" stroke="#999"/><text x="353.3" y="368" text-anchor="middle">+6</text><line x1="426.7" y1="350" x2="426.7" y2="355" stroke="#999"/><text x="426.7" y="368" text-anchor="middle">+12</text><line x1="500.0" y1="350" x2="500.0" y2="355" stroke="#999"/><text x="500.0" y="368" text-anchor="middle">+18</text><line x1="55" y1="350.0" x2="60" y2="350.0" stroke="#999"/><text x="52" y="354.0" text-anchor="end">0.0</text><line x1="55" y1="246.7" x2="60" y2="246.7" stroke="#999"/><text x="52" y="250.7" text-anchor="end">0.2</text><line x1="55" y1="143.3" x2="60" y2="143.3" stroke="#999"/><text x="52" y="147.3" text-anchor="end">0.4</text><line x1="55" y1="40.0" x2="60" y2="40.0" stroke="#999"/><text x="52" y="44.0" text-anchor="end">0.6</text><line x1="280.0" y1="40" x2="280.0" y2="350" stroke="#333" stroke-width="1" stroke-dasharray="2,2"/><polyline points="60.0,344.0 66.1,346.0 72.2,343.5 78.3,344.3 84.4,343.6 90.6,339.2 96.7,343.3 102.8,339.9 108.9,337.2 115.0,336.6 121.1,333.5 127.2,332.2 133.3,325.8 139.4,326.7 145.6,322.2 151.7,314.2 157.8,312.4 163.9,304.9 170.0,300.9 176.1,290.3 182.2,281.0 188.3,267.5 194.4,254.9 200.6,238.8 206.7,225.0 212.8,206.9 218.9,185.1 225.0,168.2 231.1,143.9 237.2,123.8 243.3,107.3 249.4,84.7 255.6,74.0 261.7,61.6 267.8,56.1 273.9,55.5 280.0,60.6 286.1,77.3 292.2,94.8 298.3,111.7 304.4,142.1 310.6,161.1 316.7,189.9 322.8,216.5 328.9,236.7 335.0,263.6 341.1,278.4 347.2,295.6 353.3,312.0 359.4,319.6 365.6,327.1 371.7,334.7 377.8,333.4 383.9,335.5 390.0,336.6 396.1,332.3 402.2,330.2 408.3,327.5 414.4,322.8 420.6,320.9 426.7,322.2 432.8,318.0 438.9,319.7 445.0,318.9 451.1,320.7 457.2,319.9 463.3,320.5 469.4,325.5 475.6,326.5 481.7,327.5 487.8,329.2 493.9,334.8 500.0,334.3" fill="none" stroke="#1b5591" stroke-width="1.8"/><circle cx="273.9" cy="55.5" r="3.5" fill="#1b5591"/><line x1="508" y1="50" x2="526" y2="50" stroke="#1b5591" stroke-width="2.5"/><text x="530" y="54" font-size="10">14147500 (-0.5 h)</text><text x="280.0" y="388" text-anchor="middle">predictor lag τ (hours; + = predictor leads target)</text><text x="16" y="195.0" text-anchor="middle" transform="rotate(-90 16 195.0)">corr( Δpredictor , Δtarget )</text></svg>
