<svg xmlns="http://www.w3.org/2000/svg" width="640" height="400" viewBox="0 0 640 400" font-family="-apple-system,BlinkMacSystemFont,Segoe UI,Roboto,sans-serif" font-size="12"><rect x="0" y="0" width="640" height="400" fill="#fff"/><text x="320.0" y="22" text-anchor="middle" font-size="14" font-weight="600">First-difference cross-correlation vs lag (travel time)</text><rect x="60" y="40" width="440" height="310" fill="none" stroke="#999" stroke-width="1"/><line x1="60.0" y1="350" x2="60.0" y2="355" stroke="#999"/><text x="60.0" y="368" text-anchor="middle">-18</text><line x1="133.3" y1="350" x2="133.3" y2="355" stroke="#999"/><text x="133.3" y="368" text-anchor="middle">-12</text><line x1="206.7" y1="350" x2="206.7" y2="355" stroke="#999"/><text x="206.7" y="368" text-anchor="middle">-6</text><line x1="280.0" y1="350" x2="280.0" y2="355" stroke="#999"/><text x="280.0" y="368" text-anchor="middle">+0</text><line x1="353.3" y1="350" x2="353.3" y2="355" stroke="#999"/><text x="353.3" y="368" text-anchor="middle">+6</text><line x1="426.7" y1="350" x2="426.7" y2="355" stroke="#999"/><text x="426.7" y="368" text-anchor="middle">+12</text><line x1="500.0" y1="350" x2="500.0" y2="355" stroke="#999"/><text x="500.0" y="368" text-anchor="middle">+18</text><line x1="55" y1="350.0" x2="60" y2="350.0" stroke="#999"/><text x="52" y="354.0" text-anchor="end">-0.3</text><line x1="55" y1="272.5" x2="60" y2="272.5" stroke="#999"/><text x="52" y="276.5" text-anchor="end">-0.1</text><line x1="55" y1="195.0" x2="60" y2="195.0" stroke="#999"/><text x="52" y="199.0" text-anchor="end">0.1</text><line x1="55" y1="117.5" x2="60" y2="117.5" stroke="#999"/><text x="52" y="121.5" text-anchor="end">0.3</text><line x1="55" y1="40.0" x2="60" y2="40.0" stroke="#999"/><text x="52" y="44.0" text-anchor="end">0.5</text><line x1="280.0" y1="40" x2="280.0" y2="350" stroke="#333" stroke-width="1" stroke-dasharray="2,2"/><polyline points="60.0,176.2 66.1,183.7 72.2,191.5 78.3,200.7 84.4,213.6 90.6,219.9 96.7,230.1 102.8,237.6 108.9,249.0 115.0,250.0 121.1,261.6 127.2,268.3 133.3,270.2 139.4,273.4 145.6,279.4 151.7,282.5 157.8,279.9 163.9,277.1 170.0,282.4 176.1,277.5 182.2,277.5 188.3,269.0 194.4,269.2 200.6,260.9 206.7,250.0 212.8,251.8 218.9,239.1 225.0,228.1 231.1,218.4 237.2,211.7 243.3,198.8 249.4,186.0 255.6,176.4 261.7,161.2 267.8,152.3 273.9,139.5 280.0,126.8 286.1,118.4 292.2,110.5 298.3,100.8 304.4,98.3 310.6,91.8 316.7,85.0 322.8,93.3 328.9,90.7 335.0,95.1 341.1,101.0 347.2,110.5 353.3,122.0 359.4,124.5 365.6,140.2 371.7,156.5 377.8,168.0 383.9,179.8 390.0,192.2 396.1,203.5 402.2,215.9 408.3,224.2 414.4,232.5 420.6,245.0 426.7,250.7 432.8,253.1 438.9,262.5 445.0,265.3 451.1,268.8 457.2,269.5 463.3,270.3 469.4,274.7 475.6,269.0 481.7,271.0 487.8,267.6 493.9,265.1 500.0,258.4" fill="none" stroke="#1b5591" stroke-width="1.8"/><circle cx="316.7" cy="85.0" r="3.5" fill="#1b5591"/><line x1="508" y1="50" x2="526" y2="50" stroke="#1b5591" stroke-width="2.5"/><text x="530" y="54" font-size="10">13310700 (+3.0 h)</text><polyline points="60.0,105.0 66.1,110.2 72.2,117.6 78.3,127.1 84.4,138.2 90.6,152.9 96.7,164.3 102.8,181.5 108.9,195.4 115.0,212.1 121.1,223.6 127.2,238.2 133.3,252.7 139.4,262.5 145.6,273.6 151.7,281.0 157.8,289.5 163.9,299.1 170.0,303.7 176.1,307.1 182.2,312.6 188.3,314.7 194.4,317.3 200.6,316.5 206.7,318.5 212.8,313.1 218.9,314.6 225.0,306.0 231.1,301.7 237.2,294.3 243.3,282.9 249.4,274.9 255.6,262.6 261.7,246.7 267.8,235.6 273.9,215.3 280.0,202.2 286.1,182.8 292.2,164.5 298.3,146.0 304.4,130.7 310.6,114.2 316.7,97.0 322.8,84.5 328.9,75.0 335.0,68.1 341.1,61.5 347.2,63.3 353.3,64.2 359.4,72.3 365.6,81.6 371.7,93.5 377.8,109.5 383.9,124.6 390.0,143.3 396.1,162.8 402.2,177.9 408.3,195.5 414.4,215.9 420.6,227.4 426.7,243.5 432.8,255.0 438.9,266.2 445.0,278.3 451.1,284.7 457.2,294.4 463.3,298.8 469.4,307.3 475.6,308.3 481.7,313.9 487.8,313.8 493.9,318.1 500.0,315.7" fill="none" stroke="#c0392b" stroke-width="1.8"/><circle cx="341.1" cy="61.5" r="3.5" fill="#c0392b"/><line x1="508" y1="68" x2="526" y2="68" stroke="#c0392b" stroke-width="2.5"/><text x="530" y="72" font-size="10">13313000 (+5.0 h)</text><polyline points="60.0,185.2 66.1,193.4 72.2,194.2 78.3,197.9 84.4,198.8 90.6,203.3 96.7,199.5 102.8,205.6 108.9,200.1 115.0,202.4 121.1,202.3 127.2,196.5 133.3,198.4 139.4,193.0 145.6,194.5 151.7,182.6 157.8,193.4 163.9,184.6 170.0,185.7 176.1,179.1 182.2,184.6 188.3,179.4 194.4,181.3 200.6,175.1 206.7,179.3 212.8,172.9 218.9,180.6 225.0,171.3 231.1,173.9 237.2,166.6 243.3,170.7 249.4,166.5 255.6,168.7 261.7,158.9 267.8,157.9 273.9,159.4 280.0,157.8 286.1,157.8 292.2,157.2 298.3,157.5 304.4,160.2 310.6,166.6 316.7,165.9 322.8,173.0 328.9,173.1 335.0,187.6 341.1,188.1 347.2,197.4 353.3,200.6 359.4,206.0 365.6,220.0 371.7,213.4 377.8,223.0 383.9,224.8 390.0,230.1 396.1,228.0 402.2,233.0 408.3,227.6 414.4,236.6 420.6,226.0 426.7,232.2 432.8,230.1 438.9,225.2 445.0,230.9 451.1,223.3 457.2,227.3 463.3,222.7 469.4,218.4 475.6,228.6 481.7,213.4 487.8,223.7 493.9,219.6 500.0,212.8" fill="none" stroke="#27ae60" stroke-width="1.8"/><circle cx="292.2" cy="157.2" r="3.5" fill="#27ae60"/><line x1="508" y1="86" x2="526" y2="86" stroke="#27ae60" stroke-width="2.5"/><text x="530" y="90" font-size="10">13317000 (+1.0 h)</text><text x="280.0" y="388" text-anchor="middle">predictor lag τ (hours; + = predictor leads target)</text><text x="16" y="195.0" text-anchor="middle" transform="rotate(-90 16 195.0)">corr( Δpredictor , Δtarget )</text></svg>
