<svg xmlns="http://www.w3.org/2000/svg" width="640" height="400" viewBox="0 0 640 400" font-family="-apple-system,BlinkMacSystemFont,Segoe UI,Roboto,sans-serif" font-size="12"><rect x="0" y="0" width="640" height="400" fill="#fff"/><text x="320.0" y="22" text-anchor="middle" font-size="14" font-weight="600">First-difference cross-correlation vs lag (travel time)</text><rect x="60" y="40" width="440" height="310" fill="none" stroke="#999" stroke-width="1"/><line x1="60.0" y1="350" x2="60.0" y2="355" stroke="#999"/><text x="60.0" y="368" text-anchor="middle">-18</text><line x1="133.3" y1="350" x2="133.3" y2="355" stroke="#999"/><text x="133.3" y="368" text-anchor="middle">-12</text><line x1="206.7" y1="350" x2="206.7" y2="355" stroke="#999"/><text x="206.7" y="368" text-anchor="middle">-6</text><line x1="280.0" y1="350" x2="280.0" y2="355" stroke="#999"/><text x="280.0" y="368" text-anchor="middle">+0</text><line x1="353.3" y1="350" x2="353.3" y2="355" stroke="#999"/><text x="353.3" y="368" text-anchor="middle">+6</text><line x1="426.7" y1="350" x2="426.7" y2="355" stroke="#999"/><text x="426.7" y="368" text-anchor="middle">+12</text><line x1="500.0" y1="350" x2="500.0" y2="355" stroke="#999"/><text x="500.0" y="368" text-anchor="middle">+18</text><line x1="55" y1="350.0" x2="60" y2="350.0" stroke="#999"/><text x="52" y="354.0" text-anchor="end">-0.1</text><line x1="55" y1="261.4" x2="60" y2="261.4" stroke="#999"/><text x="52" y="265.4" text-anchor="end">0.1</text><line x1="55" y1="172.9" x2="60" y2="172.9" stroke="#999"/><text x="52" y="176.9" text-anchor="end">0.3</text><line x1="55" y1="84.3" x2="60" y2="84.3" stroke="#999"/><text x="52" y="88.3" text-anchor="end">0.5</text><line x1="280.0" y1="40" x2="280.0" y2="350" stroke="#333" stroke-width="1" stroke-dasharray="2,2"/><polyline points="60.0,295.4 66.1,293.4 72.2,302.6 78.3,285.8 84.4,291.6 90.6,292.9 96.7,285.0 102.8,291.1 108.9,280.1 115.0,279.1 121.1,275.0 127.2,269.8 133.3,261.8 139.4,262.0 145.6,248.7 151.7,241.8 157.8,237.3 163.9,234.9 170.0,223.4 176.1,217.7 182.2,210.7 188.3,193.2 194.4,191.3 200.6,173.1 206.7,163.4 212.8,138.4 218.9,127.9 225.0,102.4 231.1,88.6 237.2,74.7 243.3,62.7 249.4,52.4 255.6,60.8 261.7,71.0 267.8,82.9 273.9,113.3 280.0,130.5 286.1,156.7 292.2,177.6 298.3,186.6 304.4,199.1 310.6,211.1 316.7,226.2 322.8,226.0 328.9,229.8 335.0,245.4 341.1,244.9 347.2,265.8 353.3,265.4 359.4,271.2 365.6,277.3 371.7,277.6 377.8,285.6 383.9,294.7 390.0,299.0 396.1,307.0 402.2,312.1 408.3,313.3 414.4,321.4 420.6,316.7 426.7,321.0 432.8,323.5 438.9,318.8 445.0,320.5 451.1,321.1 457.2,328.4 463.3,325.6 469.4,332.9 475.6,330.0 481.7,329.6 487.8,334.3 493.9,333.6 500.0,332.2" fill="none" stroke="#1b5591" stroke-width="1.8"/><circle cx="249.4" cy="52.4" r="3.5" fill="#1b5591"/><line x1="508" y1="50" x2="526" y2="50" stroke="#1b5591" stroke-width="2.5"/><text x="530" y="54" font-size="10">14242580 (-2.5 h)</text><polyline points="60.0,301.9 66.1,313.7 72.2,299.4 78.3,299.7 84.4,301.4 90.6,298.5 96.7,294.7 102.8,290.8 108.9,294.7 115.0,289.5 121.1,293.6 127.2,285.6 133.3,284.9 139.4,284.4 145.6,278.3 151.7,272.4 157.8,267.6 163.9,262.7 170.0,249.8 176.1,252.9 182.2,262.3 188.3,250.2 194.4,242.4 200.6,240.0 206.7,229.3 212.8,218.7 218.9,216.0 225.0,206.3 231.1,197.8 237.2,193.1 243.3,173.3 249.4,157.9 255.6,144.8 261.7,146.4 267.8,121.8 273.9,118.9 280.0,110.6 286.1,115.8 292.2,127.1 298.3,143.2 304.4,156.0 310.6,188.6 316.7,200.1 322.8,197.5 328.9,219.2 335.0,230.8 341.1,233.2 347.2,240.7 353.3,254.3 359.4,255.6 365.6,259.8 371.7,265.1 377.8,278.6 383.9,276.6 390.0,278.2 396.1,282.4 402.2,288.1 408.3,294.4 414.4,291.9 420.6,292.9 426.7,298.7 432.8,301.9 438.9,297.2 445.0,292.6 451.1,302.4 457.2,292.2 463.3,291.2 469.4,297.3 475.6,301.9 481.7,301.1 487.8,301.5 493.9,305.6 500.0,306.2" fill="none" stroke="#c0392b" stroke-width="1.8"/><circle cx="280.0" cy="110.6" r="3.5" fill="#c0392b"/><line x1="508" y1="68" x2="526" y2="68" stroke="#c0392b" stroke-width="2.5"/><text x="530" y="72" font-size="10">14222500 (+0.0 h)</text><text x="280.0" y="388" text-anchor="middle">predictor lag τ (hours; + = predictor leads target)</text><text x="16" y="195.0" text-anchor="middle" transform="rotate(-90 16 195.0)">corr( Δpredictor , Δtarget )</text></svg>
