<svg xmlns="http://www.w3.org/2000/svg" width="640" height="400" viewBox="0 0 640 400" font-family="-apple-system,BlinkMacSystemFont,Segoe UI,Roboto,sans-serif" font-size="12"><rect x="0" y="0" width="640" height="400" fill="#fff"/><text x="320.0" y="22" text-anchor="middle" font-size="14" font-weight="600">First-difference cross-correlation vs lag (travel time)</text><rect x="60" y="40" width="440" height="310" fill="none" stroke="#999" stroke-width="1"/><line x1="60.0" y1="350" x2="60.0" y2="355" stroke="#999"/><text x="60.0" y="368" text-anchor="middle">-18</text><line x1="133.3" y1="350" x2="133.3" y2="355" stroke="#999"/><text x="133.3" y="368" text-anchor="middle">-12</text><line x1="206.7" y1="350" x2="206.7" y2="355" stroke="#999"/><text x="206.7" y="368" text-anchor="middle">-6</text><line x1="280.0" y1="350" x2="280.0" y2="355" stroke="#999"/><text x="280.0" y="368" text-anchor="middle">+0</text><line x1="353.3" y1="350" x2="353.3" y2="355" stroke="#999"/><text x="353.3" y="368" text-anchor="middle">+6</text><line x1="426.7" y1="350" x2="426.7" y2="355" stroke="#999"/><text x="426.7" y="368" text-anchor="middle">+12</text><line x1="500.0" y1="350" x2="500.0" y2="355" stroke="#999"/><text x="500.0" y="368" text-anchor="middle">+18</text><line x1="55" y1="350.0" x2="60" y2="350.0" stroke="#999"/><text x="52" y="354.0" text-anchor="end">-0.2</text><line x1="55" y1="293.6" x2="60" y2="293.6" stroke="#999"/><text x="52" y="297.6" text-anchor="end">0.0</text><line x1="55" y1="237.3" x2="60" y2="237.3" stroke="#999"/><text x="52" y="241.3" text-anchor="end">0.2</text><line x1="55" y1="180.9" x2="60" y2="180.9" stroke="#999"/><text x="52" y="184.9" text-anchor="end">0.4</text><line x1="55" y1="124.5" x2="60" y2="124.5" stroke="#999"/><text x="52" y="128.5" text-anchor="end">0.6</text><line x1="55" y1="68.2" x2="60" y2="68.2" stroke="#999"/><text x="52" y="72.2" text-anchor="end">0.8</text><line x1="280.0" y1="40" x2="280.0" y2="350" stroke="#333" stroke-width="1" stroke-dasharray="2,2"/><polyline points="60.0,310.5 66.1,312.4 72.2,309.9 78.3,309.9 84.4,309.6 90.6,306.0 96.7,304.1 102.8,301.8 108.9,297.4 115.0,291.7 121.1,286.7 127.2,279.7 133.3,271.1 139.4,262.1 145.6,253.0 151.7,239.6 157.8,229.4 163.9,214.8 170.0,200.1 176.1,186.0 182.2,168.8 188.3,154.2 194.4,136.8 200.6,123.6 206.7,106.3 212.8,93.4 218.9,79.0 225.0,70.7 231.1,63.2 237.2,59.2 243.3,53.9 249.4,60.3 255.6,64.7 261.7,72.8 267.8,82.0 273.9,92.9 280.0,106.8 286.1,119.2 292.2,133.4 298.3,148.5 304.4,165.2 310.6,179.7 316.7,193.6 322.8,210.1 328.9,225.3 335.0,235.9 341.1,249.0 347.2,260.0 353.3,269.3 359.4,277.9 365.6,286.1 371.7,292.3 377.8,297.5 383.9,301.0 390.0,304.0 396.1,306.4 402.2,307.9 408.3,309.8 414.4,309.7 420.6,310.5 426.7,311.0 432.8,311.6 438.9,311.8 445.0,312.4 451.1,311.7 457.2,312.8 463.3,313.5 469.4,315.1 475.6,316.0 481.7,317.6 487.8,319.9 493.9,321.4 500.0,323.3" fill="none" stroke="#1b5591" stroke-width="1.8"/><circle cx="243.3" cy="53.9" r="3.5" fill="#1b5591"/><line x1="508" y1="50" x2="526" y2="50" stroke="#1b5591" stroke-width="2.5"/><text x="530" y="54" font-size="10">14305500 (-3.0 h)</text><text x="280.0" y="388" text-anchor="middle">predictor lag τ (hours; + = predictor leads target)</text><text x="16" y="195.0" text-anchor="middle" transform="rotate(-90 16 195.0)">corr( Δpredictor , Δtarget )</text></svg>
